<svg width="30" height="30" viewBox="0 0 30 30" fill="none" xmlns="http://www.w3.org/2000/svg">
<path d="M25.7894 21.3192C25.04 19.8468 24.9845 18.044 24.9814 17.6875V11.5573C24.9814 6.43004 20.6268 2.1433 15.2791 2.00417C12.5621 1.92881 9.98386 2.87659 8.03785 4.65911C6.08875 6.44164 5.01551 8.82992 5.01551 11.3834V17.6817C5.01243 18.0295 4.96 19.8381 4.2075 21.3163C3.89293 21.9336 3.93919 22.6437 4.3247 23.2234C4.7102 23.7973 5.37326 24.1422 6.09492 24.1422H9.93143C10.431 26.3421 12.5127 28 14.9985 28C17.4842 28 19.569 26.345 20.0655 24.1422H23.902C24.6267 24.1422 25.2867 23.8002 25.6753 23.2234C26.0608 22.6466 26.1071 21.9336 25.7925 21.3163L25.7894 21.3192ZM14.9954 25.9711C13.7093 25.9711 12.6084 25.2117 12.1735 24.1422H17.8172C17.3824 25.2088 16.2814 25.9711 14.9954 25.9711ZM6.19052 22.1133C7.07872 20.3134 7.16507 18.2845 7.17124 17.6933V11.3863C7.17124 9.38352 8.01317 7.51115 9.53976 6.11412C11.0663 4.71708 13.0771 3.98089 15.2174 4.03306C19.4086 4.1403 22.8195 7.51695 22.8195 11.5573V17.6991C22.8257 18.2845 22.912 20.3134 23.8002 22.1104H6.19361L6.19052 22.1133Z" fill="#121212"/>
</svg>
