<svg width="30" height="30" viewBox="0 0 30 30" fill="none" xmlns="http://www.w3.org/2000/svg">
<path d="M19.3219 6C20.1205 6.18353 20.8495 6.49412 21.4337 7.09059C22.738 8.42294 22.747 10.2353 21.432 11.55C20.1813 12.8012 18.9163 14.04 17.6567 15.2841C16.0165 16.9041 14.3728 18.5241 12.7326 20.1459C12.2216 20.6524 11.6821 21.1059 10.9299 21.2171C9.49517 21.4306 8.4321 20.2129 8.93058 18.8647C9.10567 18.3935 9.41298 17.9312 9.77032 17.5712C11.6267 15.6935 13.5188 13.8476 15.4001 11.9929C15.7682 11.6294 16.2149 11.5941 16.5115 11.8888C16.8063 12.1835 16.7652 12.6212 16.3971 12.9865C14.5479 14.8165 12.6915 16.6412 10.8495 18.4782C10.6261 18.7006 10.4278 18.9653 10.2831 19.2441C10.2152 19.3782 10.2402 19.6518 10.3367 19.7488C10.435 19.8459 10.7173 19.8776 10.8477 19.8071C11.1514 19.6465 11.4391 19.4347 11.6839 19.1947C14.0762 16.8459 16.4596 14.4865 18.8449 12.1288C19.3987 11.5818 19.9633 11.0471 20.5011 10.4859C21.2283 9.72529 21.1783 8.80765 20.3939 8.04353C19.6024 7.27412 18.5322 7.17353 17.8229 7.86706C14.7373 10.89 11.6588 13.9182 8.6054 16.9712C7.8282 17.7476 7.36902 18.7218 7.38689 19.8459C7.41905 21.9582 9.37368 23.1865 11.3712 22.3641C12.1948 22.0253 12.8774 21.4888 13.5009 20.8712C16.1756 18.2171 18.852 15.5612 21.5267 12.9071C21.6035 12.8312 21.675 12.7518 21.7554 12.6812C22.0966 12.3759 22.4682 12.3635 22.7666 12.6441C23.0757 12.9353 23.0846 13.3324 22.7523 13.6694C21.943 14.49 21.1193 15.2982 20.301 16.11C18.6054 17.7918 16.8902 19.4524 15.2215 21.1588C13.9101 22.5018 12.5236 23.6894 10.5743 24H9.43978C9.41656 23.9859 9.3969 23.9629 9.37189 23.9594C7.13854 23.6029 5.60915 21.4112 6.08798 18.8629C6.33811 17.5271 7.06529 16.4594 8.01937 15.5206C10.7709 12.8153 13.5313 10.1171 16.272 7.39941C16.9188 6.75882 17.587 6.19059 18.5107 6H19.3201H19.3219Z" fill="#767676"/>
</svg>
