<svg width="30" height="30" viewBox="0 0 30 30" fill="none" xmlns="http://www.w3.org/2000/svg">
<path fill-rule="evenodd" clip-rule="evenodd" d="M30 9.2229C30 10.0513 29.3284 10.7229 28.5 10.7229C27.6716 10.7229 27 10.0513 27 9.2229C27 8.39447 27.6716 7.7229 28.5 7.7229C29.3284 7.7229 30 8.39447 30 9.2229ZM30 14.2229C30 15.0513 29.3284 15.7229 28.5 15.7229C27.6716 15.7229 27 15.0513 27 14.2229C27 13.3945 27.6716 12.7229 28.5 12.7229C29.3284 12.7229 30 13.3945 30 14.2229ZM28.5 20.7229C29.3284 20.7229 30 20.0513 30 19.2229C30 18.3945 29.3284 17.7229 28.5 17.7229C27.6716 17.7229 27 18.3945 27 19.2229C27 20.0513 27.6716 20.7229 28.5 20.7229Z" fill="#505050"/>
</svg>
