<svg width="30" height="30" viewBox="0 0 30 30" fill="none" xmlns="http://www.w3.org/2000/svg">
<path d="M5.56002 23.4873C5.55193 23.4788 5.54223 23.4686 5.53414 23.4601C5.04892 22.9284 4.93408 22.1572 5.23815 21.4947L7.45887 16.6739C7.63356 16.2934 8.06864 16.1354 8.43095 16.3189C8.79325 16.5023 8.94367 16.9593 8.76899 17.3398L6.54827 22.1606C6.49813 22.271 6.54018 22.3526 6.58385 22.4018C6.63075 22.4494 6.70354 22.4987 6.81191 22.4494L23.4212 14.9141C23.5247 14.8665 23.5441 14.7799 23.5441 14.7153C23.5441 14.6508 23.5199 14.5624 23.4164 14.52L6.73589 7.54522C6.62914 7.50105 6.55635 7.54862 6.51268 7.59788C6.46901 7.64544 6.42858 7.72698 6.47548 7.83569L8.88221 13.2494C8.91294 13.319 8.97763 13.3666 9.05204 13.3717L17.461 14.024C17.8621 14.0545 18.163 14.4215 18.1339 14.8427C18.1048 15.264 17.7554 15.58 17.3543 15.5494L8.94529 14.8971C8.34684 14.8512 7.81794 14.4673 7.56401 13.8966L5.15728 8.48119C4.86776 7.8289 4.98422 7.06959 5.45489 6.5481C5.92556 6.0266 6.63884 5.85843 7.27449 6.12513L23.955 13.0982C24.5793 13.3598 24.9901 13.9849 24.9998 14.6915C25.0095 15.3982 24.6165 16.0369 23.9986 16.3172L7.39094 23.8542C6.75853 24.1413 6.04525 23.9969 5.56002 23.4873Z" fill="#4D12FF"/>
</svg>
