<svg width="30" height="30" viewBox="0 0 30 30" fill="none" xmlns="http://www.w3.org/2000/svg">
<path d="M22.5 13C25.5376 13 28 10.5376 28 7.5C28 4.46243 25.5376 2 22.5 2C19.4624 2 17 4.46243 17 7.5C17 10.5376 19.4624 13 22.5 13Z" fill="#EB4C3F"/>
<path d="M25.7864 21.3184C25.034 19.84 24.9816 18.0312 24.9785 17.692V15.5585C24.9785 14.999 24.4944 14.5439 23.8993 14.5439C23.3042 14.5439 22.8201 14.999 22.8201 15.5585V17.7007C22.8263 18.2862 22.9126 20.3154 23.8006 22.1126H6.19421C7.08224 20.3125 7.16857 18.2862 7.17474 17.692V11.3843C7.17474 9.38124 8.01652 7.50864 9.54282 6.11144C11.0691 4.71423 13.0826 3.97795 15.2194 4.03013C15.8114 4.04172 16.311 3.60401 16.3264 3.04455C16.3418 2.48508 15.8731 2.01838 15.278 2.00389C12.5584 1.93142 9.98375 2.87352 8.0381 4.65626C6.08937 6.439 5.01634 8.82758 5.01634 11.3814V17.6804C5.01325 18.0283 4.95775 19.8371 4.20847 21.3155C3.89396 21.9329 3.93713 22.6431 4.32565 23.2228C4.71107 23.7968 5.37401 24.1417 6.09862 24.1417H9.93442C10.4339 26.3419 12.5153 28 15.0005 28C17.4858 28 19.5702 26.3448 20.0666 24.1417H23.9024C24.627 24.1417 25.2899 23.7997 25.6754 23.2228C26.0608 22.646 26.107 21.9329 25.7925 21.3155L25.7864 21.3184ZM14.9943 25.9709C13.7085 25.9709 12.6078 25.2114 12.173 24.1417H17.8157C17.3809 25.2085 16.2801 25.9709 14.9943 25.9709Z" fill="black"/>
</svg>
