<svg width="20" height="20" viewBox="0 0 20 20" fill="none" xmlns="http://www.w3.org/2000/svg">
<path d="M9.99988 1.875C8.58879 1.87489 7.202 2.24229 5.97605 2.94101C4.7501 3.63973 3.72725 4.64569 3.00822 5.85985C2.28919 7.074 1.89876 8.45448 1.87538 9.86538C1.852 11.2763 2.19648 12.6689 2.87488 13.9062L2.21082 16.2422C2.14837 16.4571 2.1444 16.6849 2.19934 16.9018C2.25427 17.1188 2.36611 17.3172 2.52332 17.4766C2.68052 17.6345 2.87755 17.747 3.0935 17.802C3.30945 17.857 3.53627 17.8525 3.74988 17.7891L6.09363 17.125C7.1798 17.7203 8.38768 18.0594 9.62498 18.1164C10.8623 18.1734 12.0962 17.9467 13.2325 17.4538C14.3688 16.9608 15.3773 16.2146 16.181 15.2721C16.9847 14.3297 17.5623 13.216 17.8697 12.0161C18.177 10.8162 18.2059 9.56199 17.9543 8.34922C17.7026 7.13645 17.1771 5.99727 16.4177 5.01874C15.6583 4.04022 14.6853 3.24825 13.573 2.70339C12.4607 2.15852 11.2385 1.87517 9.99988 1.875Z" fill="black"/>
<path d="M6.25 10.9375C6.06458 10.9375 5.88332 10.8825 5.72915 10.7795C5.57498 10.6765 5.45482 10.5301 5.38386 10.3588C5.31291 10.1875 5.29434 9.99896 5.33051 9.8171C5.36669 9.63525 5.45598 9.4682 5.58709 9.33709C5.7182 9.20598 5.88525 9.11669 6.0671 9.08051C6.24896 9.04434 6.43746 9.06291 6.60877 9.13386C6.78007 9.20482 6.92649 9.32498 7.0295 9.47915C7.13252 9.63332 7.1875 9.81458 7.1875 10C7.1875 10.2486 7.08873 10.4871 6.91291 10.6629C6.7371 10.8387 6.49864 10.9375 6.25 10.9375ZM10 10.9375C9.81458 10.9375 9.63332 10.8825 9.47915 10.7795C9.32498 10.6765 9.20482 10.5301 9.13386 10.3588C9.06291 10.1875 9.04434 9.99896 9.08051 9.8171C9.11669 9.63525 9.20598 9.4682 9.33709 9.33709C9.4682 9.20598 9.63525 9.11669 9.8171 9.08051C9.99896 9.04434 10.1875 9.06291 10.3588 9.13386C10.5301 9.20482 10.6765 9.32498 10.7795 9.47915C10.8825 9.63332 10.9375 9.81458 10.9375 10C10.9375 10.2486 10.8387 10.4871 10.6629 10.6629C10.4871 10.8387 10.2486 10.9375 10 10.9375ZM13.75 10.9375C13.5646 10.9375 13.3833 10.8825 13.2292 10.7795C13.075 10.6765 12.9548 10.5301 12.8839 10.3588C12.8129 10.1875 12.7943 9.99896 12.8305 9.8171C12.8667 9.63525 12.956 9.4682 13.0871 9.33709C13.2182 9.20598 13.3852 9.11669 13.5671 9.08051C13.749 9.04434 13.9375 9.06291 14.1088 9.13386C14.2801 9.20482 14.4265 9.32498 14.5295 9.47915C14.6325 9.63332 14.6875 9.81458 14.6875 10C14.6875 10.2486 14.5887 10.4871 14.4129 10.6629C14.2371 10.8387 13.9986 10.9375 13.75 10.9375Z" fill="white"/>
</svg>
