<svg width="30" height="30" viewBox="0 0 30 30" fill="none" xmlns="http://www.w3.org/2000/svg">
<path d="M24.1755 17.1944C23.7204 17.1944 23.3511 17.5649 23.3511 18.0215V21.0802C23.3511 21.7783 22.7855 22.3457 22.0897 22.3457H14.9103C14.2145 22.3457 13.6489 21.7783 13.6489 21.0802V8.91977C13.6489 8.22167 14.2145 7.65426 14.9103 7.65426H22.0897C22.7855 7.65426 23.3511 8.22167 23.3511 8.91977V11.3896C23.3511 11.8462 23.7204 12.2167 24.1755 12.2167C24.6306 12.2167 25 11.8462 25 11.3896V8.91977C25 7.31017 23.6941 6 22.0897 6H14.9103C13.3059 6 12 7.31017 12 8.91977V21.0802C12 22.6898 13.3059 24 14.9103 24H22.0897C23.6941 24 25 22.6898 25 21.0802V18.0215C25 17.5649 24.6306 17.1944 24.1755 17.1944Z" fill="#B9B9B9"/>
<path d="M29.9954 15.0464C29.9954 15.0316 29.9988 15.0168 29.9988 15.0021C29.9988 14.6239 29.789 14.301 29.4887 14.1571L26.8188 11.2698C26.4861 10.9101 25.9453 10.9101 25.6126 11.2698C25.2799 11.6296 25.2799 12.2144 25.6126 12.5742L27.003 14.0778H19.853C19.3822 14.0778 19 14.491 19 15.0002C19 15.5094 19.3822 15.9227 19.853 15.9227H27.1719L25.7815 17.4263C25.4488 17.786 25.4488 18.3709 25.7815 18.7306C25.9487 18.9114 26.1671 19 26.3854 19C26.6038 19 26.8222 18.9096 26.9894 18.7306L29.7532 15.7419C29.9306 15.55 30.0108 15.2936 29.9988 15.0427L29.9954 15.0464Z" fill="#B9B9B9"/>
</svg>
