<svg width="36" height="36" viewBox="0 0 36 36" fill="none" xmlns="http://www.w3.org/2000/svg">
<path d="M0.9375 18C0.9375 8.57637 8.57637 0.9375 18 0.9375C27.4236 0.9375 35.0625 8.57637 35.0625 18C35.0625 27.4236 27.4236 35.0625 18 35.0625C8.57637 35.0625 0.9375 27.4236 0.9375 18Z" stroke="#121212" stroke-width="1.875" stroke-linecap="round" stroke-linejoin="round"/>
<path d="M8 27C8 27 10.8838 22 17.9994 22C25.115 22 28 27 28 27" stroke="#121212" stroke-width="1.875" stroke-linecap="round" stroke-linejoin="round"/>
<path d="M18 18C19.3261 18 20.5979 17.4732 21.5355 16.5355C22.4732 15.5979 23 14.3261 23 13C23 11.6739 22.4732 10.4021 21.5355 9.46447C20.5979 8.52678 19.3261 8 18 8C16.6739 8 15.4021 8.52678 14.4645 9.46447C13.5268 10.4021 13 11.6739 13 13C13 14.3261 13.5268 15.5979 14.4645 16.5355C15.4021 17.4732 16.6739 18 18 18V18Z" stroke="#121212" stroke-width="1.875" stroke-linecap="round" stroke-linejoin="round"/>
</svg>
