<svg width="30" height="30" viewBox="0 0 30 30" fill="none" xmlns="http://www.w3.org/2000/svg">
<path d="M15 2.5C8.09625 2.5 2.5 8.09625 2.5 15C2.5 21.9037 8.09625 27.5 15 27.5C21.9037 27.5 27.5 21.9037 27.5 15C27.5 8.09625 21.9037 2.5 15 2.5Z" stroke="black" stroke-width="1.875" stroke-linecap="round" stroke-linejoin="round"/>
<path d="M8 21C8 21 10.1628 17 15.4995 17C20.8362 17 23 21 23 21" stroke="black" stroke-width="1.875" stroke-linecap="round" stroke-linejoin="round"/>
<path d="M15 14C15.7956 14 16.5587 13.6839 17.1213 13.1213C17.6839 12.5587 18 11.7956 18 11C18 10.2044 17.6839 9.44129 17.1213 8.87868C16.5587 8.31607 15.7956 8 15 8C14.2044 8 13.4413 8.31607 12.8787 8.87868C12.3161 9.44129 12 10.2044 12 11C12 11.7956 12.3161 12.5587 12.8787 13.1213C13.4413 13.6839 14.2044 14 15 14V14Z" stroke="black" stroke-width="1.875" stroke-linecap="round" stroke-linejoin="round"/>
</svg>
