<svg width="30" height="30" viewBox="0 0 30 30" fill="none" xmlns="http://www.w3.org/2000/svg">
<path fill-rule="evenodd" clip-rule="evenodd" d="M9.5 10C9.5 11.3807 8.38071 12.5 7 12.5C5.61929 12.5 4.5 11.3807 4.5 10C4.5 8.61929 5.61929 7.5 7 7.5C8.38071 7.5 9.5 8.61929 9.5 10ZM10.874 11C10.4299 12.7252 8.86384 14 7 14C4.79086 14 3 12.2091 3 10C3 7.79086 4.79086 6 7 6C9.03981 6 10.723 7.52684 10.9691 9.5L25.25 9.5C25.6642 9.5 26 9.83579 26 10.25C26 10.6642 25.6642 11 25.25 11L10.874 11ZM22 16.5C20.6193 16.5 19.5 17.6193 19.5 19C19.5 20.3807 20.6193 21.5 22 21.5C23.3807 21.5 24.5 20.3807 24.5 19C24.5 17.6193 23.3807 16.5 22 16.5ZM22 15C19.7909 15 18 16.7909 18 19L3.75 19C3.33579 19 3 19.3358 3 19.75C3 20.1642 3.33579 20.5 3.75 20.5H18.25C18.2635 20.5 18.277 20.4996 18.2903 20.4989C18.8834 21.9654 20.3209 23 22 23C24.2091 23 26 21.2091 26 19C26 16.7909 24.2091 15 22 15Z" fill="#4D12FF"/>
</svg>
