<svg width="30" height="30" viewBox="0 0 30 30" fill="none" xmlns="http://www.w3.org/2000/svg">
<path d="M25.3124 12C26.2585 12.5448 27.0255 13.353 27.5201 14.3263C28.0147 15.2995 28.2153 16.3956 28.0977 17.4809C27.98 18.5662 27.549 19.5939 26.8574 20.4385C26.1657 21.2831 25.2432 21.9082 24.2024 22.2375C23.8346 23.9068 22.9076 25.4005 21.5751 26.4712C20.2425 27.5418 18.5843 28.1253 16.8749 28.125H14.0624C13.8138 28.125 13.5753 28.0262 13.3995 27.8504C13.2237 27.6746 13.1249 27.4361 13.1249 27.1875C13.1249 26.9389 13.2237 26.7004 13.3995 26.5246C13.5753 26.3488 13.8138 26.25 14.0624 26.25H16.8749C18.0386 26.2503 19.1737 25.8899 20.124 25.2183C21.0743 24.5467 21.793 23.597 22.1812 22.5H21.5624C21.3138 22.5 21.0753 22.4012 20.8995 22.2254C20.7237 22.0496 20.6249 21.8111 20.6249 21.5625V12.1875C20.6249 11.9389 20.7237 11.7004 20.8995 11.5246C21.0753 11.3488 21.3138 11.25 21.5624 11.25H22.4999C22.8037 11.25 23.1018 11.2744 23.3943 11.3212C23.1832 9.24167 22.2078 7.31447 20.6569 5.91304C19.106 4.51161 17.0902 3.73573 14.9999 3.73573C12.9097 3.73573 10.8938 4.51161 9.34294 5.91304C7.79207 7.31447 6.81661 9.24167 6.60554 11.3212C6.90131 11.2739 7.20038 11.2501 7.49992 11.25H8.43742C8.68606 11.25 8.92451 11.3488 9.10033 11.5246C9.27615 11.7004 9.37492 11.9389 9.37492 12.1875V21.5625C9.37492 21.8111 9.27615 22.0496 9.10033 22.2254C8.92451 22.4012 8.68606 22.5 8.43742 22.5H7.49992C6.26051 22.5014 5.05534 22.0934 4.07166 21.3394C3.08799 20.5854 2.38088 19.5276 2.0602 18.3304C1.73952 17.1332 1.82322 15.8636 2.29831 14.7188C2.7734 13.5741 3.61326 12.6183 4.68742 12C4.68742 9.26496 5.77391 6.64193 7.70788 4.70796C9.64185 2.77399 12.2649 1.6875 14.9999 1.6875C17.735 1.6875 20.358 2.77399 22.292 4.70796C24.2259 6.64193 25.3124 9.26496 25.3124 12Z" fill="#121212"/>
<path d="M7.5 13.125C6.50544 13.125 5.55161 13.5201 4.84835 14.2233C4.14509 14.9266 3.75 15.8804 3.75 16.875C3.75 17.8696 4.14509 18.8234 4.84835 19.5266C5.55161 20.2299 6.50544 20.625 7.5 20.625V13.125ZM26.25 16.875C26.25 15.8804 25.8549 14.9266 25.1516 14.2233C24.4484 13.5201 23.4946 13.125 22.5 13.125V20.625C23.4946 20.625 24.4484 20.2299 25.1516 19.5266C25.8549 18.8234 26.25 17.8696 26.25 16.875Z" fill="#121212"/>
</svg>
