<svg width="40" height="40" viewBox="0 0 40 40" fill="none" xmlns="http://www.w3.org/2000/svg">
<path d="M20.0002 3.33334C10.7952 3.33334 3.3335 10.795 3.3335 20C3.3335 29.205 10.7952 36.6667 20.0002 36.6667C29.2052 36.6667 36.6668 29.205 36.6668 20C36.6668 10.795 29.2052 3.33334 20.0002 3.33334Z" stroke="black" stroke-width="1.875" stroke-linecap="round" stroke-linejoin="round"/>
<path d="M10.667 28C10.667 28 13.5507 22.6667 20.6663 22.6667C27.7819 22.6667 30.667 28 30.667 28" stroke="black" stroke-width="1.875" stroke-linecap="round" stroke-linejoin="round"/>
<path d="M20 18.6667C21.0609 18.6667 22.0783 18.2453 22.8284 17.4951C23.5786 16.745 24 15.7276 24 14.6667C24 13.6058 23.5786 12.5884 22.8284 11.8383C22.0783 11.0881 21.0609 10.6667 20 10.6667C18.9391 10.6667 17.9217 11.0881 17.1716 11.8383C16.4214 12.5884 16 13.6058 16 14.6667C16 15.7276 16.4214 16.745 17.1716 17.4951C17.9217 18.2453 18.9391 18.6667 20 18.6667V18.6667Z" stroke="black" stroke-width="1.875" stroke-linecap="round" stroke-linejoin="round"/>
</svg>
