<svg width="30" height="30" viewBox="0 0 30 30" fill="none" xmlns="http://www.w3.org/2000/svg">
<path d="M17.5 23.75C22.2137 23.75 24.5712 23.75 26.035 22.285C27.5 20.8212 27.5 18.4637 27.5 13.75C27.5 9.03625 27.5 6.67875 26.035 5.215C24.5712 3.75 22.2137 3.75 17.5 3.75H12.5C7.78625 3.75 5.42875 3.75 3.965 5.215C2.5 6.67875 2.5 9.03625 2.5 13.75C2.5 18.4637 2.5 20.8212 3.965 22.285C4.78125 23.1025 5.875 23.4638 7.5 23.6225" stroke="#121212" stroke-width="2" stroke-linecap="round" stroke-linejoin="round"/>
<path d="M19.0086 8.49125C18.8922 8.37471 18.7539 8.28233 18.6017 8.21941C18.4495 8.1565 18.2863 8.12429 18.1216 8.12464C17.9569 8.12499 17.7939 8.15788 17.6419 8.22144C17.4899 8.285 17.352 8.37797 17.2361 8.495L11.5486 14.2413C11.2043 14.589 10.9696 15.0301 10.8736 15.51L10.6486 16.63C10.6082 16.8319 10.6182 17.0406 10.6778 17.2376C10.7375 17.4347 10.8448 17.6139 10.9904 17.7595C11.136 17.9051 11.3152 18.0124 11.5123 18.0721C11.7093 18.1317 11.918 18.1417 12.1199 18.1013L13.2399 17.8763C13.7198 17.7803 14.1609 17.5456 14.5086 17.2013L20.2549 11.5138C20.3719 11.3978 20.4649 11.2599 20.5284 11.108C20.592 10.956 20.6249 10.793 20.6253 10.6283C20.6256 10.4636 20.5934 10.3004 20.5305 10.1482C20.4676 9.99595 20.3752 9.85766 20.2586 9.74125L19.0086 8.49125V8.49125Z" stroke="#121212" stroke-width="2" stroke-linecap="round" stroke-linejoin="round"/>
<path d="M15.625 11.875L16.875 13.125" stroke="#121212" stroke-width="2"/>
<path d="M17.5001 23.75C15.9551 23.75 14.2526 24.375 12.6988 25.1813C10.2013 26.4775 8.95256 27.1263 8.33756 26.7125C7.72256 26.3 7.83881 25.0187 8.07256 22.4575L8.12506 21.875" stroke="#121212" stroke-width="2" stroke-linecap="round"/>
</svg>
