<svg width="157" height="188" viewBox="0 0 157 188" fill="none" xmlns="http://www.w3.org/2000/svg">
<g filter="url(#filter0_d_2674_3884)">
<path d="M33.9726 172.112C33.9726 174.02 32.7911 174.531 31.8262 174.728C29.6798 175.141 24.3039 175.102 22.2165 174.925C20.4836 174.767 19.5778 173.764 19.2824 172.053C18.7507 168.965 18.8492 161.608 19.2627 158.382C19.5187 156.317 20.7396 155.688 22.2165 155.53C23.4571 155.393 30.0342 155.393 31.7868 155.747C32.732 155.943 33.9726 156.376 33.9726 158.245C33.9726 160.153 32.732 160.644 31.7868 160.841C30.1524 161.156 26.6078 161.156 25.0325 160.959L25.0718 162.651C26.982 162.513 28.7543 162.493 30.5265 162.651C31.4718 162.749 32.8108 163.261 32.8108 165.149C32.8108 167.057 31.4718 167.667 30.5265 167.765C28.6361 167.962 26.8638 167.962 25.0522 167.804L24.9734 169.516C26.1943 169.319 30.0933 169.319 31.8459 169.614C32.8108 169.752 33.9726 170.243 33.9726 172.112Z" fill="#4D12FF"/>
<path d="M36.7688 155.747C37.9306 155.275 39.6044 155.196 40.4906 156.809C41.3767 158.422 42.7355 162.317 43.4838 164.834C43.6413 165.385 43.917 166.506 44.0351 167.018H44.0745C44.1927 166.487 44.4487 165.385 44.6259 164.775C45.3151 162.297 46.792 158.402 47.6191 156.809C48.5052 155.137 50.1594 155.255 51.3409 155.747C52.6799 156.298 53.2904 157.438 52.9556 159.248C52.3649 162.454 49.1157 170.696 47.0677 173.587C46.1816 174.846 45.2757 175.043 44.0745 175.043C42.8536 175.043 41.9281 174.846 41.0419 173.587C38.994 170.696 35.7645 162.454 35.1343 159.248C34.7996 157.438 35.4494 156.298 36.7688 155.747Z" fill="#4D12FF"/>
<path d="M78.6144 175.043C73.14 175.043 69.0244 171.876 69.0244 165.247C69.0244 158.619 73.14 155.432 78.6144 155.432C80.5049 155.432 82.5922 156.199 83.8525 157.104C84.778 157.773 85.4279 159.268 84.3842 160.94C83.1436 162.887 81.4501 162.553 80.8396 162.159C80.0913 161.687 79.4021 161.254 78.6341 161.254C76.6255 161.254 75.1092 162.73 75.1092 165.267C75.1092 167.805 76.6255 169.24 78.6341 169.24C79.8156 169.24 80.367 168.788 81.2335 168.198C81.9227 167.726 83.3996 167.765 84.5023 169.24C85.9005 171.129 84.9356 172.663 83.9313 173.371C82.5922 174.276 80.4458 175.043 78.6144 175.043Z" fill="#4D12FF"/>
<path d="M103.84 172.23C103.623 173.941 102.717 175.043 100.985 175.043C99.2516 175.043 98.3261 173.941 98.1292 172.23C97.9913 171.05 97.8929 169.516 97.8535 167.922C96.475 168.08 94.8012 168.06 93.5606 167.903C93.5212 169.535 93.4228 171.089 93.2849 172.289C93.088 174 92.1625 175.043 90.4296 175.043C88.6967 175.043 87.7909 174 87.5742 172.289C87.1016 168.493 87.1016 161.49 87.5545 157.989C87.7909 156.14 89.1299 155.412 90.4296 155.412C91.7293 155.412 93.0683 156.12 93.3046 157.989C93.4425 159.032 93.5212 160.487 93.5606 162.061C94.8406 161.923 96.4947 161.903 97.8535 162.041C97.8929 160.468 97.9913 159.051 98.1095 157.95C98.3261 156.101 99.6848 155.432 100.985 155.432C102.284 155.432 103.623 156.101 103.86 157.95C104.312 161.431 104.312 168.434 103.84 172.23Z" fill="#4D12FF"/>
<path d="M109.964 158.343C110.772 156.632 111.697 155.707 113.115 155.491C114.159 155.334 114.966 155.334 116.01 155.491C117.408 155.707 118.195 156.652 119.101 158.343C120.48 160.94 122.823 167.962 123.355 171.384C123.65 173.233 123.118 174.473 121.425 174.925C119.751 175.377 118.491 174.551 117.821 172.978C117.605 172.486 117.349 171.522 117.171 170.775C115.616 171.011 113.391 171.011 111.894 170.794C111.756 171.483 111.461 172.486 111.284 172.958C110.535 174.787 109.255 175.377 107.562 174.925C105.888 174.473 105.376 173.214 105.711 171.502C106.4 167.942 108.684 161.097 109.964 158.343ZM116.029 165.601C115.576 163.969 114.966 161.825 114.592 160.409H114.493C114.159 161.844 113.568 163.949 113.115 165.601C113.804 165.582 115.38 165.582 116.029 165.601Z" fill="#4D12FF"/>
<path d="M139.069 158.343C139.069 160.074 137.927 160.92 136.214 161.058C135.406 161.136 134.619 161.176 133.851 161.195C134.107 164.559 134.048 169.083 133.634 172.27C133.418 173.981 132.571 175.023 130.818 175.023C129.085 175.023 128.219 173.981 128.002 172.27C127.589 169.063 127.53 164.618 127.786 161.195C126.998 161.176 126.21 161.097 125.423 161.058C123.572 160.92 122.587 159.897 122.587 158.343C122.587 156.789 123.572 155.766 125.423 155.629C128.928 155.373 132.374 155.314 136.194 155.629C137.927 155.766 139.069 156.612 139.069 158.343Z" fill="#4D12FF"/>
<path d="M63.767 169.299C62.9596 169.595 61.4039 169.752 60.3603 169.752C59.3953 169.752 58.076 169.575 57.1505 169.378C55.6932 169.063 54.5117 167.923 54.5117 166.428V165.956C54.5117 164.638 55.4176 163.438 56.6975 163.103C57.4852 162.887 59.1984 162.592 60.3603 162.592C62.0341 162.592 62.9793 162.867 63.9048 163.162C64.791 163.438 66.2088 164.146 66.2088 165.975V166.447C66.1891 168.08 64.8894 168.906 63.767 169.299Z" fill="#4D12FF"/>
<path d="M21.9414 62.8107C23.0921 54.4078 26.0581 46.4135 31.5812 39.3386C39.61 29.0712 51.4999 22.4817 64.4125 20.8471C71.1373 20.0042 86.1722 18.8293 96.4 23.1713C97.3205 23.5544 98.2411 22.5328 97.6529 21.741C89.9054 10.835 76.3791 8 60.9862 8C49.0452 8 36.4394 9.60907 26.2883 16.6839C15.37 24.2951 8.54297 37.04 8.54297 50.3723C8.54297 62.5298 9.46348 73.1292 20.2027 80.485C20.9186 80.9703 21.9414 80.4594 21.8391 79.6166C21.2255 73.921 21.1999 68.2764 21.9414 62.8107Z" fill="#A5A6F6"/>
<path d="M108.904 34.4349C101.514 29.3778 92.5648 26.415 82.9251 26.415H73.7968C48.3295 26.415 27.6948 47.0265 27.6948 72.4652V81.5833C27.6948 89.3733 29.6381 96.7035 33.0644 103.14C40.812 117.698 56.1282 127.633 73.7968 127.633H123.581C126.598 127.633 129.027 125.182 129.027 122.193V72.4652C129.027 56.6554 121.049 42.7101 108.904 34.4349Z" fill="#4D12FF"/>
</g>
<defs>
<filter id="filter0_d_2674_3884" x="-7" y="0" width="176" height="190" filterUnits="userSpaceOnUse" color-interpolation-filters="sRGB">
<feFlood flood-opacity="0" result="BackgroundImageFix"/>
<feColorMatrix in="SourceAlpha" type="matrix" values="0 0 0 0 0 0 0 0 0 0 0 0 0 0 0 0 0 0 127 0" result="hardAlpha"/>
<feOffset dx="2" dy="2"/>
<feGaussianBlur stdDeviation="5"/>
<feComposite in2="hardAlpha" operator="out"/>
<feColorMatrix type="matrix" values="0 0 0 0 0 0 0 0 0 0 0 0 0 0 0 0 0 0 0.15 0"/>
<feBlend mode="normal" in2="BackgroundImageFix" result="effect1_dropShadow_2674_3884"/>
<feBlend mode="normal" in="SourceGraphic" in2="effect1_dropShadow_2674_3884" result="shape"/>
</filter>
</defs>
</svg>
