<svg width="81" height="14" viewBox="0 0 81 14" fill="none" xmlns="http://www.w3.org/2000/svg">
<path d="M9.00543 3.84152C9.67799 3.70889 10.5583 3.3552 10.5583 2.01902C10.5583 0.697583 9.68294 0.393013 9.00543 0.260378C7.79384 0.00984547 3.38264 0.00493307 2.32434 0.0982688H1.44408C0.697344 0.0982688 0.0940179 0.697583 0.0940179 1.43936C0.0940179 3.80222 -0.00488791 6.16018 5.73841e-05 8.52305C0.00500268 9.7315 0.0396197 10.935 0.118744 12.1435C0.173143 12.9639 0.489641 13.7842 1.4787 13.7842H2.33424C3.88706 13.912 7.55152 13.9218 9.03511 13.6418C9.71261 13.5091 10.5533 13.1407 10.5533 11.7996C10.5533 10.4782 9.72745 10.1392 9.05489 10.041C7.80867 9.83957 5.03931 9.83957 4.18378 9.97221L4.23323 8.76867C5.51406 8.87183 6.78005 8.87183 8.11034 8.73428C8.7829 8.66551 9.72745 8.23322 9.72745 6.89213C9.72745 5.56578 8.7829 5.19735 8.11034 5.13349C6.86412 5.01559 5.59813 5.03033 4.24806 5.13349L4.21839 3.93977C5.33108 4.07241 7.84329 4.07241 9.00543 3.84152Z" fill="#121212"/>
<path d="M22.8572 0.275092C22.0313 -0.0589519 20.8494 -0.142463 20.2263 1.02669C19.6378 2.14672 18.5894 4.89767 18.0998 6.63666C17.9811 7.05421 17.7982 7.84511 17.7141 8.21354H17.6795C17.5954 7.84511 17.4124 7.05913 17.2937 6.67105C16.7547 4.9124 15.7953 2.16637 15.1673 1.02669C14.5442 -0.112988 13.3622 -0.0638644 12.5364 0.275092C11.5918 0.65826 11.1369 1.46389 11.3891 2.73621C11.8292 4.99592 14.1238 10.7926 15.5728 12.8361C16.1959 13.7253 16.8536 13.8579 17.7141 13.8579C18.5746 13.8579 19.2125 13.7253 19.8406 12.8361C21.2895 10.7926 23.5842 4.99592 24.0045 2.73621C24.2369 1.45898 23.7968 0.65826 22.8572 0.275092Z" fill="#121212"/>
<path d="M38.7663 9.01425C38.158 9.4318 37.7723 9.75111 36.9316 9.75111C35.5123 9.75111 34.4342 8.74406 34.4342 6.95595C34.4342 5.16292 35.5123 4.1264 36.9316 4.1264C37.4854 4.1264 37.975 4.42606 38.4992 4.76501C38.9393 5.04993 40.1361 5.28573 41.0114 3.91025C41.7532 2.73619 41.2982 1.68002 40.6405 1.21334C39.7504 0.579642 38.2618 0.0441895 36.9316 0.0441895C33.0544 0.0441895 30.1367 2.28916 30.1367 6.96086C30.1367 11.6326 33.0544 13.8628 36.9316 13.8628C38.2272 13.8628 39.7454 13.3273 40.6751 12.674C41.3823 12.1729 42.0747 11.0824 41.0807 9.76093C40.2993 8.71459 39.2509 8.6802 38.7663 9.01425Z" fill="#121212"/>
<path d="M52.7663 0.0393066C51.8366 0.0393066 50.8772 0.505985 50.7239 1.81269C50.6398 2.58393 50.5706 3.58606 50.5409 4.69627C49.5815 4.59311 48.4144 4.61276 47.5045 4.71101C47.4748 3.60571 47.4204 2.58393 47.3215 1.84707C47.1534 0.540372 46.2088 0.0393066 45.2791 0.0393066C44.3543 0.0393066 43.4098 0.540372 43.2367 1.84707C42.9153 4.30819 42.9153 9.23533 43.2515 11.9126C43.4048 13.1161 44.0428 13.8579 45.2742 13.8579C46.5055 13.8579 47.1633 13.121 47.2968 11.9126C47.3957 11.0775 47.4649 9.98693 47.4995 8.83251C48.3749 8.95041 49.5568 8.96515 50.536 8.85217C50.5706 9.97219 50.6349 11.0431 50.7387 11.8831C50.8722 13.0916 51.53 13.8628 52.7613 13.8628C53.9927 13.8628 54.6307 13.0916 54.784 11.8831C55.1202 9.20095 55.1202 4.27871 54.7988 1.8176C54.6405 0.505985 53.696 0.0393066 52.7663 0.0393066Z" fill="#121212"/>
<path d="M65.278 2.0976C64.6351 0.908795 64.0812 0.240708 63.0872 0.0884233C62.3454 -0.0294744 61.7718 -0.0294744 61.03 0.0884233C60.036 0.240708 59.3782 0.894058 58.8046 2.0976C57.8946 4.04291 56.2775 8.86689 55.8028 11.3624C55.5654 12.5659 55.9363 13.4551 57.1182 13.7744C58.315 14.0937 59.2249 13.6761 59.7491 12.3842C59.8826 12.0501 60.0854 11.3427 60.1893 10.8613C61.2525 11.0136 62.835 11.0136 63.9328 10.8466C64.0515 11.382 64.2345 12.0501 64.3878 12.4038C64.8626 13.5091 65.7527 14.0986 66.9346 13.7793C68.1314 13.46 68.5023 12.5905 68.2995 11.2838C67.9089 8.86689 66.2571 3.92501 65.278 2.0976ZM61.0448 7.2065C61.3662 6.05209 61.7866 4.55871 62.024 3.55658H62.0932C62.3454 4.54398 62.7855 6.05209 63.107 7.2065C62.6322 7.19176 61.5195 7.19176 61.0448 7.2065Z" fill="#121212"/>
<path d="M77.9775 0.186662C75.2773 -0.0294836 72.8344 0.00490328 70.3568 0.186662C69.0413 0.289823 68.349 1.00703 68.349 2.09759C68.349 3.18814 69.0413 3.90535 70.3568 4.00852C70.9107 4.0429 71.4695 4.09203 72.0283 4.11168C71.8404 6.52367 71.8948 9.65778 72.1816 11.9175C72.3349 13.121 72.9432 13.8628 74.1696 13.8628C75.401 13.8628 76.0093 13.1259 76.1576 11.9175C76.4444 9.67252 76.4939 6.47454 76.3109 4.11168C76.85 4.09694 77.4088 4.06255 77.9824 4.00852C79.194 3.91027 80.005 3.32078 80.005 2.09759C80.0001 0.874399 79.194 0.289823 77.9775 0.186662Z" fill="#121212"/>
</svg>
