<svg width="100" height="100" viewBox="0 0 100 100" fill="none" xmlns="http://www.w3.org/2000/svg">
<path d="M2 50C2 23.4896 23.4896 2 50 2C76.5104 2 98 23.4896 98 50C98 76.5104 76.5104 98 50 98C23.4896 98 2 76.5104 2 50Z" stroke="#121212" stroke-width="4" stroke-linecap="round" stroke-linejoin="round"/>
<path d="M22 75C22 75 30.0745 61 49.9982 61C69.9219 61 78 75 78 75" stroke="#121212" stroke-width="4" stroke-linecap="round" stroke-linejoin="round"/>
<path d="M50 50C53.713 50 57.274 48.525 59.8995 45.8995C62.525 43.274 64 39.713 64 36C64 32.287 62.525 28.726 59.8995 26.1005C57.274 23.475 53.713 22 50 22C46.287 22 42.726 23.475 40.1005 26.1005C37.475 28.726 36 32.287 36 36C36 39.713 37.475 43.274 40.1005 45.8995C42.726 48.525 46.287 50 50 50V50Z" stroke="#121212" stroke-width="4" stroke-linecap="round" stroke-linejoin="round"/>
</svg>
