<svg width="30" height="30" viewBox="0 0 30 30" fill="none" xmlns="http://www.w3.org/2000/svg">
<path fill-rule="evenodd" clip-rule="evenodd" d="M19.8871 12.9436C19.8871 16.7784 16.7784 19.8871 12.9436 19.8871C9.10874 19.8871 6 16.7784 6 12.9436C6 9.10874 9.10874 6 12.9436 6C16.7784 6 19.8871 9.10874 19.8871 12.9436ZM18.5463 19.9151C17.0132 21.1488 15.0646 21.8871 12.9436 21.8871C8.00417 21.8871 4 17.883 4 12.9436C4 8.00417 8.00417 4 12.9436 4C17.883 4 21.8871 8.00417 21.8871 12.9436C21.8871 15.0409 21.1652 16.9696 19.9562 18.4948L26.6786 24.7059C27.0843 25.0807 27.1093 25.7134 26.7345 26.1191C26.3597 26.5247 25.727 26.5497 25.3214 26.1749L18.5463 19.9151Z" fill="#121212"/>
</svg>
